<?xml version="1.0" encoding="UTF-8" standalone="no"?>
<!-- Created with Inkscape (http://www.inkscape.org/) -->

<svg
   width="180"
   height="180"
   viewBox="0 0 47.624998 47.625"
   version="1.1"
   id="svg1"
   xml:space="preserve"
   sodipodi:docname="favicon-dark.svg"
   inkscape:export-filename="favicon_180.png"
   inkscape:export-xdpi="96"
   inkscape:export-ydpi="96"
   inkscape:version="1.4.2 (ebf0e940d0, 2025-05-08)"
   xmlns:inkscape="http://www.inkscape.org/namespaces/inkscape"
   xmlns:sodipodi="http://sodipodi.sourceforge.net/DTD/sodipodi-0.dtd"
   xmlns="http://www.w3.org/2000/svg"
   xmlns:svg="http://www.w3.org/2000/svg"><sodipodi:namedview
     id="namedview1"
     pagecolor="#ffffff"
     bordercolor="#000000"
     borderopacity="0.25"
     inkscape:showpageshadow="2"
     inkscape:pageopacity="0.0"
     inkscape:pagecheckerboard="0"
     inkscape:deskcolor="#d1d1d1"
     inkscape:document-units="mm"
     inkscape:zoom="1.28"
     inkscape:cx="31.640625"
     inkscape:cy="0.78125"
     inkscape:window-width="1366"
     inkscape:window-height="740"
     inkscape:window-x="0"
     inkscape:window-y="0"
     inkscape:window-maximized="1"
     inkscape:current-layer="layer1" /><defs
     id="defs1"><style
       id="style1">
      .cls-1 {
        fill: #007eec;
      }

      .cls-2 {
        fill: #e32527;
      }

      .cls-3 {
        fill: #f8b11d;
      }

      .cls-4 {
        fill: #00c23f;
      }
    </style></defs><g
     inkscape:label="Layer 1"
     inkscape:groupmode="layer"
     id="layer1"><circle
       style="fill:#ffffff;stroke-width:0.264583"
       id="path11"
       cx="23.8125"
       cy="23.8125"
       r="23.8125" /><g
       id="g1"
       transform="matrix(0.05373638,0,0,0.05373638,-5.6492764,-5.1030461)"><g
         id="g4"><path
           class="cls-4"
           d="m 512.37,538.1 c 0,9.9 4.03,18.87 10.52,25.36 l -9.59,9.59 c -8.95,-8.96 -14.5,-21.34 -14.5,-34.96 0,-13.62 5.55,-26.03 14.53,-34.99 l 9.59,9.59 c -6.5,6.5 -10.54,15.49 -10.54,25.4 z"
           id="path1" /><path
           class="cls-2"
           d="m 583.25,573.05 c -8.96,8.97 -21.34,14.53 -34.99,14.53 -13.65,0 -26.01,-5.54 -34.97,-14.5 v 0 c 0,0 9.59,-9.6 9.59,-9.6 6.5,6.5 15.48,10.53 25.37,10.53 9.89,0 18.89,-4.04 25.39,-10.55 l 9.6,9.6 z"
           id="path2" /><path
           class="cls-3"
           d="m 597.73,538.1 c 0,13.62 -5.54,25.99 -14.48,34.94 l -9.6,-9.6 c 6.49,-6.49 10.51,-15.45 10.51,-25.34 0,-9.89 -4.03,-18.88 -10.52,-25.37 l 9.58,-9.59 h 0.01 c 8.95,8.96 14.5,21.32 14.5,34.97 z"
           id="path3" /><path
           class="cls-1"
           d="m 583.22,503.14 -9.58,9.59 h -0.01 c -6.5,-6.5 -15.46,-10.53 -25.36,-10.53 -9.9,0 -18.85,4.02 -25.35,10.51 l -9.59,-9.59 c 8.96,-8.95 21.31,-14.49 34.94,-14.49 13.63,0 26,5.55 34.96,14.51 z"
           id="path4" /></g><path
         class="cls-1"
         d="m 557.85,528.5 -9.57,9.58 -9.59,-9.59 c 2.46,-2.45 5.84,-3.96 9.57,-3.96 3.73,0 7.14,1.52 9.59,3.97 z"
         id="path5" /><path
         class="cls-3"
         d="m 561.82,538.1 c 0,3.73 -1.5,7.12 -3.95,9.57 l -9.59,-9.59 9.57,-9.58 c 2.45,2.47 3.97,5.86 3.97,9.6 z"
         id="path6" /><path
         class="cls-2"
         d="m 557.88,547.67 c -2.46,2.47 -5.86,3.99 -9.62,3.99 -3.76,0 -7.14,-1.52 -9.59,-3.97 v 0 c 0,0 9.62,-9.62 9.62,-9.62 l 9.59,9.59 z"
         id="path7" /><path
         class="cls-4"
         d="m 548.28,538.08 -9.62,9.6 c -2.45,-2.45 -3.97,-5.84 -3.97,-9.58 0,-3.74 1.53,-7.16 3.99,-9.62 l 9.59,9.59 z"
         id="path8" /><g
         id="_Radial_Repeat_"
         data-name="&amp;lt;Radial Repeat&amp;gt;"><g
           id="g16"><path
             class="cls-3"
             d="m 551.63,942 c -29.39,0 -50.73,-21.33 -50.73,-50.73 0,-27.37 41.67,-62.38 46.42,-66.28 l 4.36,-3.58 4.32,3.63 c 4.73,3.98 46.25,39.72 46.25,66.88 0,29.02 -21.29,50.08 -50.63,50.08 z m -0.05,-102.74 c -4.12,3.67 -10.59,9.73 -16.99,16.81 -12.97,14.36 -20.11,26.86 -20.11,35.2 0,21.53 15.62,37.15 37.15,37.15 21.53,0 37.05,-15.01 37.05,-36.5 0,-8.3 -7.14,-20.91 -20.1,-35.51 -6.41,-7.22 -12.9,-13.41 -17,-17.16 z"
             id="path9" /><path
             class="cls-3"
             d="m 551.22,838.7 -3.91,-3.23 c -1.71,-1.42 -39.57,-32.72 -50.69,-43.17 -30.21,36.77 -52.3,43.85 -63.09,44.71 -12.68,1 -25.15,-3.51 -35.1,-12.71 -11.77,-10.87 -18.79,-26.92 -18.79,-42.94 0,-13.79 5.37,-26.69 15.12,-36.33 9.97,-9.85 23.28,-15.19 37.54,-15.03 22.94,0.27 40.11,15.59 63.34,41.15 18.67,-24.94 36.87,-37.33 55.48,-37.82 19.47,-0.54 38.24,11.56 58.88,38 18.05,-17.03 35.63,-34.46 48.12,-47.3 -19.57,-19.69 -32.77,-42.64 -33.22,-58.7 -1.76,-20.79 14.49,-39.17 32.68,-56.78 -40.52,-30.83 -42.2,-59.57 -39.38,-74.35 3.73,-19.54 19.53,-35.8 39.31,-40.47 18.52,-4.37 36.55,2.17 48.25,17.48 14.86,19.46 14.75,47.16 -0.28,67.37 -7.42,9.97 -17.23,19.54 -26.99,28.81 20.98,17.49 31.57,36.6 31.48,56.88 -0.12,28.57 -21.29,50.55 -31.91,59.79 42.14,38.94 39.69,67.85 36.64,78.55 -3.86,13.51 -14.5,22.79 -29.19,25.48 -12.69,2.32 -27.06,-0.47 -41.56,-8.07 -12.27,-6.43 -24.32,-16.27 -35.36,-28.81 -20.23,18.69 -40.03,35.81 -53.17,44.67 l -4.21,2.84 z M 431.66,743.58 c -10.4,0 -20.1,3.93 -27.36,11.11 -7.15,7.06 -11.09,16.54 -11.09,26.67 0,12.11 5.53,24.74 14.43,32.97 5.05,4.67 13.45,10.04 24.81,9.14 14.68,-1.16 34.49,-16.11 54.87,-41.26 -23.61,-26.05 -37.84,-38.42 -55.18,-38.62 -0.16,0 -0.32,0 -0.48,0 z m 73.25,37.87 c 6.33,6.24 33.09,28.66 47.06,40.26 12.66,-9.2 30.18,-24.49 48.07,-41.05 -0.14,-0.18 -0.28,-0.37 -0.42,-0.56 -17.35,-22.33 -32.86,-33.2 -47.38,-33.2 -0.26,0 -0.51,0 -0.76,0.01 -14.71,0.39 -29.97,11.7 -46.57,34.55 z m 113.66,0.43 c 17.25,19.41 41.87,36.98 64.5,32.83 9.56,-1.75 16.16,-7.38 18.58,-15.85 4.95,-17.33 -7.6,-41.81 -33.59,-65.58 -12.77,13.14 -30.88,31.07 -49.49,48.6 z M 668.59,616.8 c -16.54,15.9 -31.54,32.11 -30.14,47.54 l 0.03,0.48 c 0.25,12.52 12.47,32.76 29.57,49.92 8.35,-7.07 28.27,-26.46 28.36,-50.54 0.07,-16.41 -9.29,-32.33 -27.82,-47.4 z m 0.23,-110.84 c -2.67,0 -5.41,0.32 -8.18,0.98 -14.66,3.46 -26.35,15.44 -29.1,29.8 -2.26,11.85 -0.4,35.38 36.01,62.31 9.87,-9.35 19.91,-18.99 27.05,-28.59 11.43,-15.37 11.59,-36.36 0.38,-51.03 -6.71,-8.79 -15.97,-13.48 -26.16,-13.48 z"
             id="path10" /><circle
             class="cls-3"
             cx="669.21002"
             cy="544.84003"
             r="13.81"
             id="circle10" /><circle
             class="cls-3"
             cx="669.21002"
             cy="664.77002"
             r="13.81"
             id="circle11" /><circle
             class="cls-3"
             cx="669.21002"
             cy="781.78003"
             r="13.81"
             id="circle12" /><circle
             class="cls-3"
             cx="551.63"
             cy="781.78003"
             r="13.81"
             id="circle13" /><circle
             class="cls-3"
             cx="551.63"
             cy="781.78003"
             r="13.81"
             id="circle14" /><circle
             class="cls-3"
             cx="551.63"
             cy="893.03998"
             r="13.81"
             id="circle15" /><circle
             class="cls-3"
             cx="434.06"
             cy="781.78003"
             r="13.81"
             id="circle16" /><path
             class="cls-3"
             d="m 667.65,732.9 c -16.02,-13.81 -42.87,-41 -42.74,-67.98 0.09,-19.61 14.51,-43.02 38.55,-62.63 l 8.58,10.52 c -20.31,16.56 -33.49,37.04 -33.56,52.17 -0.08,15.73 13.79,36.73 38.03,57.63 l -8.86,10.28 z"
             id="path16" /></g></g><g
         id="_Radial_Repeat_-2"
         data-name="&amp;lt;Radial Repeat&amp;gt;"><g
           id="g24"><path
             class="cls-2"
             d="m 194.44,592.1 c -29.02,0 -50.08,-21.29 -50.08,-50.63 0,-29.34 21.33,-50.73 50.73,-50.73 27.37,0 62.38,41.67 66.28,46.42 l 3.58,4.36 -3.63,4.32 c -3.98,4.73 -39.72,46.25 -66.88,46.25 z m 0.64,-87.78 c -21.53,0 -37.15,15.62 -37.15,37.15 0,21.53 15.01,37.05 36.5,37.05 8.3,0 20.91,-7.14 35.51,-20.1 7.22,-6.41 13.41,-12.9 17.16,-17 -3.67,-4.12 -9.73,-10.59 -16.81,-16.99 -14.36,-12.97 -26.86,-20.11 -35.2,-20.11 z"
             id="path17" /><path
             class="cls-2"
             d="m 541.99,706.68 c -11.96,0 -24.03,-3.78 -34.2,-11.34 -9.97,-7.41 -19.54,-17.23 -28.81,-26.99 -17.42,20.9 -36.45,31.48 -56.64,31.48 -0.08,0 -0.16,0 -0.24,0 -28.57,-0.12 -50.55,-21.29 -59.78,-31.91 -38.94,42.14 -67.85,39.69 -78.55,36.64 -13.51,-3.86 -22.79,-14.5 -25.48,-29.19 -2.32,-12.69 0.47,-27.06 8.07,-41.56 6.43,-12.27 16.27,-24.32 28.81,-35.36 -18.7,-20.23 -35.81,-40.02 -44.67,-53.17 l -2.84,-4.21 3.23,-3.91 c 1.42,-1.71 32.72,-39.57 43.17,-50.69 -36.77,-30.21 -43.85,-52.3 -44.71,-63.09 -1,-12.68 3.51,-25.14 12.7,-35.1 10.87,-11.77 26.92,-18.8 42.94,-18.8 13.79,0 26.69,5.37 36.33,15.12 9.86,9.97 15.19,23.3 15.03,37.54 -0.27,22.94 -15.59,40.11 -41.15,63.34 24.94,18.67 37.33,36.87 37.82,55.48 0.51,19.52 -11.56,38.24 -38,58.89 17.04,18.05 34.46,35.63 47.31,48.12 19.69,-19.57 42.64,-32.77 58.7,-33.22 20.77,-1.74 39.17,14.49 56.78,32.68 30.83,-40.52 59.56,-42.2 74.35,-39.38 19.54,3.73 35.8,19.53 40.47,39.31 4.37,18.52 -2.16,36.55 -17.48,48.25 -9.66,7.38 -21.36,11.07 -33.17,11.07 z M 487.3,657.39 c 9.35,9.87 18.99,19.91 28.59,27.05 15.37,11.43 36.36,11.59 51.03,0.38 11.1,-8.47 15.65,-20.99 12.5,-34.34 -3.46,-14.66 -15.44,-26.35 -29.81,-29.1 -11.85,-2.27 -35.38,-0.4 -62.31,36.01 z M 304.48,608.41 c -19.41,17.25 -36.97,41.86 -32.83,64.5 1.75,9.56 7.38,16.16 15.85,18.58 17.33,4.95 41.81,-7.6 65.58,-33.59 -13.14,-12.77 -31.07,-30.88 -48.6,-49.49 z m 67.14,49.48 c 7.07,8.35 26.45,28.26 50.53,28.36 0.06,0 0.12,0 0.18,0 16.34,0 32.21,-9.35 47.23,-27.82 -15.9,-16.54 -32.1,-31.56 -47.54,-30.14 l -0.48,0.03 c -12.52,0.25 -32.76,12.47 -49.92,29.57 z M 264.65,541.81 c 9.2,12.66 24.49,30.18 41.05,48.07 0.19,-0.14 0.37,-0.28 0.56,-0.42 22.72,-17.65 33.58,-33.4 33.19,-48.14 -0.39,-14.71 -11.7,-29.97 -34.55,-46.57 -6.24,6.33 -28.66,33.09 -40.26,47.06 z M 305,383.05 c -12.11,0 -24.74,5.53 -32.97,14.43 -4.67,5.05 -10.04,13.46 -9.14,24.81 1.16,14.68 16.11,34.48 41.26,54.87 26.05,-23.61 38.42,-37.84 38.63,-55.18 0.12,-10.58 -3.82,-20.47 -11.11,-27.84 -7.06,-7.15 -16.54,-11.09 -26.67,-11.09 z"
             id="path18" /><circle
             class="cls-2"
             cx="541.52002"
             cy="659.03998"
             r="13.81"
             id="circle18" /><circle
             class="cls-2"
             cx="421.59"
             cy="659.03998"
             r="13.81"
             id="circle19" /><circle
             class="cls-2"
             cx="304.57999"
             cy="659.03998"
             r="13.81"
             id="circle20" /><circle
             class="cls-2"
             cx="304.57999"
             cy="541.46997"
             r="13.81"
             id="circle21" /><circle
             class="cls-2"
             cx="304.57999"
             cy="541.46997"
             r="13.81"
             id="circle22" /><circle
             class="cls-2"
             cx="193.31"
             cy="541.46997"
             r="13.81"
             id="circle23" /><circle
             class="cls-2"
             cx="304.57999"
             cy="423.89999"
             r="13.81"
             id="circle24" /><path
             class="cls-2"
             d="m 363.74,666.35 -10.28,-8.86 c 13.78,-15.98 40.88,-42.74 67.79,-42.74 h 0.19 c 19.61,0.09 43.02,14.51 62.63,38.55 l -10.52,8.58 c -16.56,-20.31 -37.04,-33.49 -52.17,-33.56 h -0.13 c -15.71,0 -36.66,13.85 -57.51,38.03 z"
             id="path24" /></g></g><g
         id="_Radial_Repeat_-3"
         data-name="&amp;lt;Radial Repeat&amp;gt;"><g
           id="g32"><path
             class="cls-4"
             d="m 544.83,254.79 -4.32,-3.63 c -4.73,-3.98 -46.25,-39.72 -46.25,-66.88 0,-29.02 21.29,-50.08 50.63,-50.08 29.34,0 50.73,21.33 50.73,50.73 0,27.37 -41.67,62.38 -46.42,66.28 l -4.36,3.58 z m 0.06,-107.02 c -21.82,0 -37.05,15.01 -37.05,36.5 0,8.3 7.14,20.91 20.1,35.51 6.41,7.22 12.9,13.41 17,17.16 4.12,-3.67 10.59,-9.73 16.99,-16.81 12.97,-14.36 20.11,-26.86 20.11,-35.2 0,-21.53 -15.62,-37.15 -37.15,-37.15 z"
             id="path25" /><path
             class="cls-4"
             d="m 427.75,583.8 c -14.38,0 -27.7,-6.63 -37,-18.81 -14.86,-19.46 -14.75,-47.16 0.28,-67.37 7.42,-9.97 17.23,-19.54 26.99,-28.81 -20.98,-17.49 -31.57,-36.6 -31.48,-56.88 0.12,-28.57 21.29,-50.55 31.91,-59.79 -42.14,-38.94 -39.69,-67.85 -36.64,-78.55 3.86,-13.51 14.5,-22.79 29.19,-25.48 12.69,-2.32 27.06,0.47 41.56,8.07 12.27,6.43 24.32,16.27 35.36,28.81 20.23,-18.69 40.03,-35.81 53.17,-44.67 l 4.21,-2.84 3.91,3.23 c 1.71,1.42 39.57,32.72 50.69,43.17 30.21,-36.77 52.3,-43.85 63.09,-44.71 12.67,-1 25.15,3.51 35.1,12.71 11.77,10.87 18.79,26.92 18.79,42.94 0,13.79 -5.37,26.69 -15.12,36.33 -9.97,9.85 -23.28,15.15 -37.54,15.03 -22.94,-0.27 -40.11,-15.59 -63.34,-41.15 -18.67,24.94 -36.87,37.33 -55.48,37.82 -19.52,0.51 -38.24,-11.56 -58.88,-38 -18.05,17.03 -35.63,34.46 -48.12,47.3 19.57,19.69 32.77,42.64 33.22,58.7 1.76,20.79 -14.49,39.17 -32.68,56.78 40.52,30.83 42.2,59.57 39.38,74.35 -3.73,19.54 -19.53,35.8 -39.31,40.47 -3.78,0.89 -7.55,1.33 -11.25,1.33 z m 1.22,-106.66 c -9.87,9.35 -19.91,18.99 -27.05,28.59 -11.43,15.37 -11.59,36.36 -0.38,51.03 8.47,11.1 20.99,15.65 34.34,12.5 14.66,-3.46 26.35,-15.44 29.1,-29.8 2.26,-11.85 0.4,-35.38 -36.01,-62.31 z m -0.5,-115.68 c -8.35,7.07 -28.27,26.46 -28.36,50.54 -0.07,16.41 9.29,32.33 27.82,47.4 16.54,-15.9 31.54,-32.11 30.14,-47.54 l -0.03,-0.48 c -0.25,-12.52 -12.47,-32.76 -29.57,-49.92 z m -8.19,-100.59 c -2.29,0 -4.57,0.2 -6.84,0.61 -9.56,1.75 -16.16,7.38 -18.58,15.85 -4.95,17.33 7.6,41.81 33.59,65.58 12.77,-13.14 30.88,-31.07 49.49,-48.6 -15.52,-17.47 -37.01,-33.44 -57.67,-33.44 z m 188.92,33.12 c 23.61,26.05 37.84,38.42 55.18,38.62 0.16,0 0.32,0 0.48,0 10.4,0 20.1,-3.93 27.36,-11.11 7.15,-7.06 11.09,-16.54 11.09,-26.67 0,-12.11 -5.53,-24.74 -14.43,-32.97 -5.05,-4.67 -13.46,-10.04 -24.81,-9.14 -14.68,1.16 -34.49,16.11 -54.87,41.26 z m -112.3,2.11 c 17.35,22.33 32.86,33.2 47.38,33.2 0.26,0 0.51,0 0.76,-0.01 14.71,-0.39 29.97,-11.7 46.57,-34.55 -6.33,-6.24 -33.09,-28.66 -47.06,-40.26 -12.66,9.2 -30.18,24.49 -48.07,41.05 0.14,0.18 0.28,0.37 0.42,0.56 z"
             id="path26" /><circle
             class="cls-4"
             cx="427.31"
             cy="531.35999"
             r="13.81"
             id="circle26" /><circle
             class="cls-4"
             cx="427.31"
             cy="411.42001"
             r="13.81"
             id="circle27" /><circle
             class="cls-4"
             cx="427.31"
             cy="294.42001"
             r="13.81"
             id="circle28" /><circle
             class="cls-4"
             cx="544.89001"
             cy="294.42001"
             r="13.81"
             id="circle29" /><circle
             class="cls-4"
             cx="544.89001"
             cy="294.42001"
             r="13.81"
             id="circle30" /><circle
             class="cls-4"
             cx="544.89001"
             cy="183.14999"
             r="13.81"
             id="circle31" /><circle
             class="cls-4"
             cx="662.46002"
             cy="294.42001"
             r="13.81"
             id="circle32" /><path
             class="cls-4"
             d="m 433.07,473.91 -8.58,-10.52 c 20.31,-16.56 33.49,-37.04 33.56,-52.17 0.08,-15.73 -13.79,-36.73 -38.03,-57.63 l 8.86,-10.28 c 16.02,13.81 42.87,41 42.74,67.98 -0.09,19.61 -14.51,43.02 -38.55,62.63 z"
             id="path32" /></g></g><g
         id="_Radial_Repeat_-4"
         data-name="&amp;lt;Radial Repeat&amp;gt;"><g
           id="g40"><path
             class="cls-1"
             d="m 901.44,585.45 c -27.37,0 -62.38,-41.67 -66.28,-46.42 l -3.58,-4.36 3.63,-4.32 c 3.98,-4.73 39.72,-46.25 66.88,-46.25 29.02,0 50.08,21.29 50.08,50.63 0,29.34 -21.33,50.73 -50.73,50.73 z m -52.02,-50.67 c 3.67,4.12 9.73,10.59 16.81,16.99 14.36,12.97 26.86,20.11 35.2,20.11 21.53,0 37.15,-15.62 37.15,-37.15 0,-21.53 -15.01,-37.05 -36.5,-37.05 -8.3,0 -20.91,7.14 -35.51,20.1 -7.22,6.41 -13.41,12.9 -17.16,17 z"
             id="path33" /><path
             class="cls-1"
             d="m 791.52,706.72 c -13.79,0 -26.69,-5.37 -36.33,-15.12 -9.86,-9.97 -15.19,-23.31 -15.03,-37.54 0.27,-22.94 15.59,-40.11 41.15,-63.34 -24.94,-18.67 -37.33,-36.87 -37.82,-55.48 -0.51,-19.52 11.56,-38.24 38,-58.89 -17.04,-18.05 -34.46,-35.63 -47.3,-48.12 -19.69,19.57 -42.64,32.77 -58.7,33.22 -20.76,1.75 -39.17,-14.49 -56.78,-32.68 -30.83,40.52 -59.57,42.2 -74.35,39.37 -19.54,-3.73 -35.8,-19.53 -40.47,-39.31 -4.37,-18.52 2.16,-36.55 17.48,-48.25 19.46,-14.86 47.16,-14.75 67.37,0.28 9.97,7.41 19.54,17.22 28.81,26.99 17.42,-20.9 36.45,-31.48 56.64,-31.48 h 0.24 c 28.57,0.12 50.55,21.29 59.79,31.91 38.95,-42.15 67.85,-39.69 78.55,-36.64 13.51,3.86 22.79,14.5 25.48,29.19 2.32,12.69 -0.47,27.06 -8.07,41.56 -6.43,12.27 -16.27,24.32 -28.81,35.36 18.7,20.23 35.81,40.03 44.68,53.17 l 2.84,4.21 -3.23,3.91 c -1.42,1.71 -32.72,39.57 -43.17,50.69 36.77,30.21 43.85,52.3 44.71,63.09 1,12.68 -3.51,25.15 -12.71,35.1 -10.87,11.77 -26.92,18.79 -42.94,18.79 z m 0.85,-107.68 c -26.05,23.61 -38.42,37.85 -38.62,55.18 -0.12,10.58 3.82,20.47 11.11,27.84 7.06,7.15 16.54,11.09 26.67,11.09 12.11,0 24.74,-5.53 32.97,-14.43 4.67,-5.05 10.04,-13.46 9.14,-24.81 -1.16,-14.68 -16.11,-34.49 -41.26,-54.87 z m -2.11,-112.3 c -22.72,17.65 -33.58,33.4 -33.19,48.14 0.39,14.71 11.7,29.97 34.55,46.57 6.24,-6.33 28.66,-33.09 40.26,-47.06 -9.2,-12.66 -24.49,-30.18 -41.05,-48.06 -0.18,0.14 -0.37,0.28 -0.56,0.42 z m -46.82,-68.45 c 13.14,12.77 31.07,30.88 48.6,49.49 19.41,-17.25 36.97,-41.86 32.83,-64.5 -1.75,-9.56 -7.38,-16.16 -15.85,-18.58 -17.32,-4.95 -41.81,7.6 -65.58,33.59 z M 554.53,383.07 c -8.89,0 -17.68,2.76 -24.93,8.3 -11.1,8.47 -15.65,20.99 -12.5,34.34 3.46,14.66 15.44,26.35 29.81,29.1 11.85,2.26 35.37,0.4 62.31,-36.01 -9.35,-9.87 -18.99,-19.91 -28.59,-27.05 -7.78,-5.78 -16.99,-8.68 -26.1,-8.68 z m 72.43,34.7 c 15.9,16.54 32.11,31.56 47.54,30.14 l 0.48,-0.03 c 12.52,-0.25 32.76,-12.47 49.92,-29.57 -7.07,-8.35 -26.46,-28.27 -50.54,-28.36 h -0.18 c -16.34,0 -32.21,9.35 -47.23,27.82 z"
             id="path34" /><circle
             class="cls-1"
             cx="555"
             cy="417.14999"
             r="13.81"
             id="circle34" /><circle
             class="cls-1"
             cx="674.92999"
             cy="417.14999"
             r="13.81"
             id="circle35" /><circle
             class="cls-1"
             cx="791.94"
             cy="417.14999"
             r="13.81"
             id="circle36" /><circle
             class="cls-1"
             cx="791.94"
             cy="534.72998"
             r="13.81"
             id="circle37" /><circle
             class="cls-1"
             cx="791.94"
             cy="534.72998"
             r="13.81"
             id="circle38" /><circle
             class="cls-1"
             cx="903.21002"
             cy="534.72998"
             r="13.81"
             id="circle39" /><circle
             class="cls-1"
             cx="791.94"
             cy="652.29999"
             r="13.81"
             id="circle40" /><path
             class="cls-1"
             d="m 675.27,461.46 h -0.19 c -19.61,-0.09 -43.02,-14.51 -62.63,-38.55 l 10.52,-8.58 c 16.56,20.31 37.04,33.48 52.17,33.56 h 0.13 c 15.71,0 36.66,-13.85 57.51,-38.03 l 10.28,8.86 c -13.78,15.98 -40.87,42.74 -67.79,42.74 z"
             id="path40" /></g></g></g></g></svg>
