<?xml version="1.0" encoding="UTF-8"?>
<svg id="Layer_1" data-name="Layer 1" xmlns="http://www.w3.org/2000/svg" viewBox="0 0 1080 1080">
  <defs>
    <style>
      .cls-1 {
        fill: #007eec;
      }

      .cls-2 {
        fill: #e32527;
      }

      .cls-3 {
        fill: #f8b11d;
      }

      .cls-4 {
        fill: #00c23f;
      }
    </style>
  </defs>
  <g>
    <path class="cls-4" d="M512.37,538.1c0,9.9,4.03,18.87,10.52,25.36l-9.59,9.59c-8.95-8.96-14.5-21.34-14.5-34.96s5.55-26.03,14.53-34.99l9.59,9.59c-6.5,6.5-10.54,15.49-10.54,25.4Z"/>
    <path class="cls-2" d="M583.25,573.05c-8.96,8.97-21.34,14.53-34.99,14.53s-26.01-5.54-34.97-14.5h0s9.59-9.6,9.59-9.6c6.5,6.5,15.48,10.53,25.37,10.53s18.89-4.04,25.39-10.55l9.6,9.6Z"/>
    <path class="cls-3" d="M597.73,538.1c0,13.62-5.54,25.99-14.48,34.94l-9.6-9.6c6.49-6.49,10.51-15.45,10.51-25.34s-4.03-18.88-10.52-25.37l9.58-9.59h.01c8.95,8.96,14.5,21.32,14.5,34.97Z"/>
    <path class="cls-1" d="M583.22,503.14l-9.58,9.59h-.01c-6.5-6.5-15.46-10.53-25.36-10.53s-18.85,4.02-25.35,10.51l-9.59-9.59c8.96-8.95,21.31-14.49,34.94-14.49s26,5.55,34.96,14.51Z"/>
  </g>
  <path class="cls-1" d="M557.85,528.5l-9.57,9.58-9.59-9.59c2.46-2.45,5.84-3.96,9.57-3.96s7.14,1.52,9.59,3.97Z"/>
  <path class="cls-3" d="M561.82,538.1c0,3.73-1.5,7.12-3.95,9.57l-9.59-9.59,9.57-9.58c2.45,2.47,3.97,5.86,3.97,9.6Z"/>
  <path class="cls-2" d="M557.88,547.67c-2.46,2.47-5.86,3.99-9.62,3.99s-7.14-1.52-9.59-3.97h0s9.62-9.62,9.62-9.62l9.59,9.59Z"/>
  <path class="cls-4" d="M548.28,538.08l-9.62,9.6c-2.45-2.45-3.97-5.84-3.97-9.58s1.53-7.16,3.99-9.62l9.59,9.59Z"/>
  <g id="_Radial_Repeat_" data-name="&amp;lt;Radial Repeat&amp;gt;">
    <g>
      <path class="cls-3" d="M551.63,942c-29.39,0-50.73-21.33-50.73-50.73,0-27.37,41.67-62.38,46.42-66.28l4.36-3.58,4.32,3.63c4.73,3.98,46.25,39.72,46.25,66.88,0,29.02-21.29,50.08-50.63,50.08ZM551.58,839.26c-4.12,3.67-10.59,9.73-16.99,16.81-12.97,14.36-20.11,26.86-20.11,35.2,0,21.53,15.62,37.15,37.15,37.15s37.05-15.01,37.05-36.5c0-8.3-7.14-20.91-20.1-35.51-6.41-7.22-12.9-13.41-17-17.16Z"/>
      <path class="cls-3" d="M551.22,838.7l-3.91-3.23c-1.71-1.42-39.57-32.72-50.69-43.17-30.21,36.77-52.3,43.85-63.09,44.71-12.68,1-25.15-3.51-35.1-12.71-11.77-10.87-18.79-26.92-18.79-42.94,0-13.79,5.37-26.69,15.12-36.33,9.97-9.85,23.28-15.19,37.54-15.03,22.94.27,40.11,15.59,63.34,41.15,18.67-24.94,36.87-37.33,55.48-37.82,19.47-.54,38.24,11.56,58.88,38,18.05-17.03,35.63-34.46,48.12-47.3-19.57-19.69-32.77-42.64-33.22-58.7-1.76-20.79,14.49-39.17,32.68-56.78-40.52-30.83-42.2-59.57-39.38-74.35,3.73-19.54,19.53-35.8,39.31-40.47,18.52-4.37,36.55,2.17,48.25,17.48,14.86,19.46,14.75,47.16-.28,67.37-7.42,9.97-17.23,19.54-26.99,28.81,20.98,17.49,31.57,36.6,31.48,56.88-.12,28.57-21.29,50.55-31.91,59.79,42.14,38.94,39.69,67.85,36.64,78.55-3.86,13.51-14.5,22.79-29.19,25.48-12.69,2.32-27.06-.47-41.56-8.07-12.27-6.43-24.32-16.27-35.36-28.81-20.23,18.69-40.03,35.81-53.17,44.67l-4.21,2.84ZM431.66,743.58c-10.4,0-20.1,3.93-27.36,11.11-7.15,7.06-11.09,16.54-11.09,26.67,0,12.11,5.53,24.74,14.43,32.97,5.05,4.67,13.45,10.04,24.81,9.14,14.68-1.16,34.49-16.11,54.87-41.26-23.61-26.05-37.84-38.42-55.18-38.62-.16,0-.32,0-.48,0ZM504.91,781.45c6.33,6.24,33.09,28.66,47.06,40.26,12.66-9.2,30.18-24.49,48.07-41.05-.14-.18-.28-.37-.42-.56-17.35-22.33-32.86-33.2-47.38-33.2-.26,0-.51,0-.76.01-14.71.39-29.97,11.7-46.57,34.55ZM618.57,781.88c17.25,19.41,41.87,36.98,64.5,32.83,9.56-1.75,16.16-7.38,18.58-15.85,4.95-17.33-7.6-41.81-33.59-65.58-12.77,13.14-30.88,31.07-49.49,48.6ZM668.59,616.8c-16.54,15.9-31.54,32.11-30.14,47.54l.03.48c.25,12.52,12.47,32.76,29.57,49.92,8.35-7.07,28.27-26.46,28.36-50.54.07-16.41-9.29-32.33-27.82-47.4ZM668.82,505.96c-2.67,0-5.41.32-8.18.98-14.66,3.46-26.35,15.44-29.1,29.8-2.26,11.85-.4,35.38,36.01,62.31,9.87-9.35,19.91-18.99,27.05-28.59,11.43-15.37,11.59-36.36.38-51.03-6.71-8.79-15.97-13.48-26.16-13.48Z"/>
      <circle class="cls-3" cx="669.21" cy="544.84" r="13.81"/>
      <circle class="cls-3" cx="669.21" cy="664.77" r="13.81"/>
      <circle class="cls-3" cx="669.21" cy="781.78" r="13.81"/>
      <circle class="cls-3" cx="551.63" cy="781.78" r="13.81"/>
      <circle class="cls-3" cx="551.63" cy="781.78" r="13.81"/>
      <circle class="cls-3" cx="551.63" cy="893.04" r="13.81"/>
      <circle class="cls-3" cx="434.06" cy="781.78" r="13.81"/>
      <path class="cls-3" d="M667.65,732.9c-16.02-13.81-42.87-41-42.74-67.98.09-19.61,14.51-43.02,38.55-62.63l8.58,10.52c-20.31,16.56-33.49,37.04-33.56,52.17-.08,15.73,13.79,36.73,38.03,57.63l-8.86,10.28Z"/>
    </g>
  </g>
  <g id="_Radial_Repeat_-2" data-name="&amp;lt;Radial Repeat&amp;gt;">
    <g>
      <path class="cls-2" d="M194.44,592.1c-29.02,0-50.08-21.29-50.08-50.63s21.33-50.73,50.73-50.73c27.37,0,62.38,41.67,66.28,46.42l3.58,4.36-3.63,4.32c-3.98,4.73-39.72,46.25-66.88,46.25ZM195.08,504.32c-21.53,0-37.15,15.62-37.15,37.15s15.01,37.05,36.5,37.05c8.3,0,20.91-7.14,35.51-20.1,7.22-6.41,13.41-12.9,17.16-17-3.67-4.12-9.73-10.59-16.81-16.99-14.36-12.97-26.86-20.11-35.2-20.11Z"/>
      <path class="cls-2" d="M541.99,706.68c-11.96,0-24.03-3.78-34.2-11.34-9.97-7.41-19.54-17.23-28.81-26.99-17.42,20.9-36.45,31.48-56.64,31.48-.08,0-.16,0-.24,0-28.57-.12-50.55-21.29-59.78-31.91-38.94,42.14-67.85,39.69-78.55,36.64-13.51-3.86-22.79-14.5-25.48-29.19-2.32-12.69.47-27.06,8.07-41.56,6.43-12.27,16.27-24.32,28.81-35.36-18.7-20.23-35.81-40.02-44.67-53.17l-2.84-4.21,3.23-3.91c1.42-1.71,32.72-39.57,43.17-50.69-36.77-30.21-43.85-52.3-44.71-63.09-1-12.68,3.51-25.14,12.7-35.1,10.87-11.77,26.92-18.8,42.94-18.8,13.79,0,26.69,5.37,36.33,15.12,9.86,9.97,15.19,23.3,15.03,37.54-.27,22.94-15.59,40.11-41.15,63.34,24.94,18.67,37.33,36.87,37.82,55.48.51,19.52-11.56,38.24-38,58.89,17.04,18.05,34.46,35.63,47.31,48.12,19.69-19.57,42.64-32.77,58.7-33.22,20.77-1.74,39.17,14.49,56.78,32.68,30.83-40.52,59.56-42.2,74.35-39.38,19.54,3.73,35.8,19.53,40.47,39.31,4.37,18.52-2.16,36.55-17.48,48.25-9.66,7.38-21.36,11.07-33.17,11.07ZM487.3,657.39c9.35,9.87,18.99,19.91,28.59,27.05,15.37,11.43,36.36,11.59,51.03.38,11.1-8.47,15.65-20.99,12.5-34.34-3.46-14.66-15.44-26.35-29.81-29.1-11.85-2.27-35.38-.4-62.31,36.01ZM304.48,608.41c-19.41,17.25-36.97,41.86-32.83,64.5,1.75,9.56,7.38,16.16,15.85,18.58,17.33,4.95,41.81-7.6,65.58-33.59-13.14-12.77-31.07-30.88-48.6-49.49ZM371.62,657.89c7.07,8.35,26.45,28.26,50.53,28.36.06,0,.12,0,.18,0,16.34,0,32.21-9.35,47.23-27.82-15.9-16.54-32.1-31.56-47.54-30.14l-.48.03c-12.52.25-32.76,12.47-49.92,29.57ZM264.65,541.81c9.2,12.66,24.49,30.18,41.05,48.07.19-.14.37-.28.56-.42,22.72-17.65,33.58-33.4,33.19-48.14-.39-14.71-11.7-29.97-34.55-46.57-6.24,6.33-28.66,33.09-40.26,47.06ZM305,383.05c-12.11,0-24.74,5.53-32.97,14.43-4.67,5.05-10.04,13.46-9.14,24.81,1.16,14.68,16.11,34.48,41.26,54.87,26.05-23.61,38.42-37.84,38.63-55.18.12-10.58-3.82-20.47-11.11-27.84-7.06-7.15-16.54-11.09-26.67-11.09Z"/>
      <circle class="cls-2" cx="541.52" cy="659.04" r="13.81"/>
      <circle class="cls-2" cx="421.59" cy="659.04" r="13.81"/>
      <circle class="cls-2" cx="304.58" cy="659.04" r="13.81"/>
      <circle class="cls-2" cx="304.58" cy="541.47" r="13.81"/>
      <circle class="cls-2" cx="304.58" cy="541.47" r="13.81"/>
      <circle class="cls-2" cx="193.31" cy="541.47" r="13.81"/>
      <circle class="cls-2" cx="304.58" cy="423.9" r="13.81"/>
      <path class="cls-2" d="M363.74,666.35l-10.28-8.86c13.78-15.98,40.88-42.74,67.79-42.74h.19c19.61.09,43.02,14.51,62.63,38.55l-10.52,8.58c-16.56-20.31-37.04-33.49-52.17-33.56h-.13c-15.71,0-36.66,13.85-57.51,38.03Z"/>
    </g>
  </g>
  <g id="_Radial_Repeat_-3" data-name="&amp;lt;Radial Repeat&amp;gt;">
    <g>
      <path class="cls-4" d="M544.83,254.79l-4.32-3.63c-4.73-3.98-46.25-39.72-46.25-66.88,0-29.02,21.29-50.08,50.63-50.08s50.73,21.33,50.73,50.73c0,27.37-41.67,62.38-46.42,66.28l-4.36,3.58ZM544.89,147.77c-21.82,0-37.05,15.01-37.05,36.5,0,8.3,7.14,20.91,20.1,35.51,6.41,7.22,12.9,13.41,17,17.16,4.12-3.67,10.59-9.73,16.99-16.81,12.97-14.36,20.11-26.86,20.11-35.2,0-21.53-15.62-37.15-37.15-37.15Z"/>
      <path class="cls-4" d="M427.75,583.8c-14.38,0-27.7-6.63-37-18.81-14.86-19.46-14.75-47.16.28-67.37,7.42-9.97,17.23-19.54,26.99-28.81-20.98-17.49-31.57-36.6-31.48-56.88.12-28.57,21.29-50.55,31.91-59.79-42.14-38.94-39.69-67.85-36.64-78.55,3.86-13.51,14.5-22.79,29.19-25.48,12.69-2.32,27.06.47,41.56,8.07,12.27,6.43,24.32,16.27,35.36,28.81,20.23-18.69,40.03-35.81,53.17-44.67l4.21-2.84,3.91,3.23c1.71,1.42,39.57,32.72,50.69,43.17,30.21-36.77,52.3-43.85,63.09-44.71,12.67-1,25.15,3.51,35.1,12.71,11.77,10.87,18.79,26.92,18.79,42.94,0,13.79-5.37,26.69-15.12,36.33-9.97,9.85-23.28,15.15-37.54,15.03-22.94-.27-40.11-15.59-63.34-41.15-18.67,24.94-36.87,37.33-55.48,37.82-19.52.51-38.24-11.56-58.88-38-18.05,17.03-35.63,34.46-48.12,47.3,19.57,19.69,32.77,42.64,33.22,58.7,1.76,20.79-14.49,39.17-32.68,56.78,40.52,30.83,42.2,59.57,39.38,74.35-3.73,19.54-19.53,35.8-39.31,40.47-3.78.89-7.55,1.33-11.25,1.33ZM428.97,477.14c-9.87,9.35-19.91,18.99-27.05,28.59-11.43,15.37-11.59,36.36-.38,51.03,8.47,11.1,20.99,15.65,34.34,12.5,14.66-3.46,26.35-15.44,29.1-29.8,2.26-11.85.4-35.38-36.01-62.31ZM428.47,361.46c-8.35,7.07-28.27,26.46-28.36,50.54-.07,16.41,9.29,32.33,27.82,47.4,16.54-15.9,31.54-32.11,30.14-47.54l-.03-.48c-.25-12.52-12.47-32.76-29.57-49.92ZM420.28,260.87c-2.29,0-4.57.2-6.84.61-9.56,1.75-16.16,7.38-18.58,15.85-4.95,17.33,7.6,41.81,33.59,65.58,12.77-13.14,30.88-31.07,49.49-48.6-15.52-17.47-37.01-33.44-57.67-33.44ZM609.2,293.99c23.61,26.05,37.84,38.42,55.18,38.62.16,0,.32,0,.48,0,10.4,0,20.1-3.93,27.36-11.11,7.15-7.06,11.09-16.54,11.09-26.67,0-12.11-5.53-24.74-14.43-32.97-5.05-4.67-13.46-10.04-24.81-9.14-14.68,1.16-34.49,16.11-54.87,41.26ZM496.9,296.1c17.35,22.33,32.86,33.2,47.38,33.2.26,0,.51,0,.76-.01,14.71-.39,29.97-11.7,46.57-34.55-6.33-6.24-33.09-28.66-47.06-40.26-12.66,9.2-30.18,24.49-48.07,41.05.14.18.28.37.42.56Z"/>
      <circle class="cls-4" cx="427.31" cy="531.36" r="13.81"/>
      <circle class="cls-4" cx="427.31" cy="411.42" r="13.81"/>
      <circle class="cls-4" cx="427.31" cy="294.42" r="13.81"/>
      <circle class="cls-4" cx="544.89" cy="294.42" r="13.81"/>
      <circle class="cls-4" cx="544.89" cy="294.42" r="13.81"/>
      <circle class="cls-4" cx="544.89" cy="183.15" r="13.81"/>
      <circle class="cls-4" cx="662.46" cy="294.42" r="13.81"/>
      <path class="cls-4" d="M433.07,473.91l-8.58-10.52c20.31-16.56,33.49-37.04,33.56-52.17.08-15.73-13.79-36.73-38.03-57.63l8.86-10.28c16.02,13.81,42.87,41,42.74,67.98-.09,19.61-14.51,43.02-38.55,62.63Z"/>
    </g>
  </g>
  <g id="_Radial_Repeat_-4" data-name="&amp;lt;Radial Repeat&amp;gt;">
    <g>
      <path class="cls-1" d="M901.44,585.45c-27.37,0-62.38-41.67-66.28-46.42l-3.58-4.36,3.63-4.32c3.98-4.73,39.72-46.25,66.88-46.25,29.02,0,50.08,21.29,50.08,50.63s-21.33,50.73-50.73,50.73ZM849.42,534.78c3.67,4.12,9.73,10.59,16.81,16.99,14.36,12.97,26.86,20.11,35.2,20.11,21.53,0,37.15-15.62,37.15-37.15s-15.01-37.05-36.5-37.05c-8.3,0-20.91,7.14-35.51,20.1-7.22,6.41-13.41,12.9-17.16,17Z"/>
      <path class="cls-1" d="M791.52,706.72c-13.79,0-26.69-5.37-36.33-15.12-9.86-9.97-15.19-23.31-15.03-37.54.27-22.94,15.59-40.11,41.15-63.34-24.94-18.67-37.33-36.87-37.82-55.48-.51-19.52,11.56-38.24,38-58.89-17.04-18.05-34.46-35.63-47.3-48.12-19.69,19.57-42.64,32.77-58.7,33.22-20.76,1.75-39.17-14.49-56.78-32.68-30.83,40.52-59.57,42.2-74.35,39.37-19.54-3.73-35.8-19.53-40.47-39.31-4.37-18.52,2.16-36.55,17.48-48.25,19.46-14.86,47.16-14.75,67.37.28,9.97,7.41,19.54,17.22,28.81,26.99,17.42-20.9,36.45-31.48,56.64-31.48h.24c28.57.12,50.55,21.29,59.79,31.91,38.95-42.15,67.85-39.69,78.55-36.64,13.51,3.86,22.79,14.5,25.48,29.19,2.32,12.69-.47,27.06-8.07,41.56-6.43,12.27-16.27,24.32-28.81,35.36,18.7,20.23,35.81,40.03,44.68,53.17l2.84,4.21-3.23,3.91c-1.42,1.71-32.72,39.57-43.17,50.69,36.77,30.21,43.85,52.3,44.71,63.09,1,12.68-3.51,25.15-12.71,35.1-10.87,11.77-26.92,18.79-42.94,18.79ZM792.37,599.04c-26.05,23.61-38.42,37.85-38.62,55.18-.12,10.58,3.82,20.47,11.11,27.84,7.06,7.15,16.54,11.09,26.67,11.09,12.11,0,24.74-5.53,32.97-14.43,4.67-5.05,10.04-13.46,9.14-24.81-1.16-14.68-16.11-34.49-41.26-54.87ZM790.26,486.74c-22.72,17.65-33.58,33.4-33.19,48.14.39,14.71,11.7,29.97,34.55,46.57,6.24-6.33,28.66-33.09,40.26-47.06-9.2-12.66-24.49-30.18-41.05-48.06-.18.14-.37.28-.56.42ZM743.44,418.29c13.14,12.77,31.07,30.88,48.6,49.49,19.41-17.25,36.97-41.86,32.83-64.5-1.75-9.56-7.38-16.16-15.85-18.58-17.32-4.95-41.81,7.6-65.58,33.59ZM554.53,383.07c-8.89,0-17.68,2.76-24.93,8.3-11.1,8.47-15.65,20.99-12.5,34.34,3.46,14.66,15.44,26.35,29.81,29.1,11.85,2.26,35.37.4,62.31-36.01-9.35-9.87-18.99-19.91-28.59-27.05-7.78-5.78-16.99-8.68-26.1-8.68ZM626.96,417.77c15.9,16.54,32.11,31.56,47.54,30.14l.48-.03c12.52-.25,32.76-12.47,49.92-29.57-7.07-8.35-26.46-28.27-50.54-28.36h-.18c-16.34,0-32.21,9.35-47.23,27.82Z"/>
      <circle class="cls-1" cx="555" cy="417.15" r="13.81"/>
      <circle class="cls-1" cx="674.93" cy="417.15" r="13.81"/>
      <circle class="cls-1" cx="791.94" cy="417.15" r="13.81"/>
      <circle class="cls-1" cx="791.94" cy="534.73" r="13.81"/>
      <circle class="cls-1" cx="791.94" cy="534.73" r="13.81"/>
      <circle class="cls-1" cx="903.21" cy="534.73" r="13.81"/>
      <circle class="cls-1" cx="791.94" cy="652.3" r="13.81"/>
      <path class="cls-1" d="M675.27,461.46h-.19c-19.61-.09-43.02-14.51-62.63-38.55l10.52-8.58c16.56,20.31,37.04,33.48,52.17,33.56h.13c15.71,0,36.66-13.85,57.51-38.03l10.28,8.86c-13.78,15.98-40.87,42.74-67.79,42.74Z"/>
    </g>
  </g>
</svg>